<?xml version="1.0" encoding="UTF-8" standalone="no"?>
<!-- Created with Inkscape (http://www.inkscape.org/) -->
<svg
   xmlns:svg="http://www.w3.org/2000/svg"
   xmlns="http://www.w3.org/2000/svg"
   version="1.0"
   width="140"
   height="25"
   id="svg2457">
  <defs
     id="defs2459" />
  <g
     transform="translate(-273.48418,-395.90361)"
     id="layer1">
    <polygon
       points="213.43,373.41 213.43,403.91 204.09,403.91 204.09,373.41 213.43,373.41 "
       transform="matrix(0.7110569,0,0,-0.7110569,131.84876,684.76298)"
       id="polygon2395"
       style="font-style:normal;font-variant:normal;font-weight:normal;font-stretch:normal;letter-spacing:normal;word-spacing:normal;text-anchor:start;fill:#ff0000;fill-opacity:1;fill-rule:evenodd;stroke:#000000;stroke-width:0;stroke-linecap:butt;stroke-linejoin:miter;stroke-miterlimit:10.43299961;stroke-dasharray:none;stroke-dashoffset:0;stroke-opacity:1" />
    <path
       d="M 338.71654,419.24722 L 338.99386,419.24722 L 339.26406,419.24011 L 339.79024,419.21878 L 340.28798,419.17612 L 340.76439,419.12634 L 341.21235,419.05524 L 341.6461,418.96991 L 342.0514,418.87747 L 342.43537,418.7637 L 342.79801,418.63571 L 343.14643,418.50061 L 343.4664,418.35129 L 343.76505,418.18775 L 344.04947,418.01709 L 344.31256,417.82511 L 344.56143,417.63312 L 344.78897,417.41981 L 344.99518,417.20649 L 345.18716,416.97895 L 345.36493,416.73719 L 345.52136,416.48832 L 345.67068,416.23234 L 345.79867,415.96925 L 345.91244,415.69194 L 346.01199,415.41463 L 346.09731,415.12309 L 346.17553,414.82445 L 346.23242,414.51869 L 346.28219,414.21294 L 346.31774,413.89296 L 346.34618,413.57299 L 346.36041,413.23879 L 346.36752,412.91171 L 346.36752,412.91171 L 346.36752,397.55999 L 339.72624,397.55999 L 339.72624,410.70032 L 339.72624,410.70032 C 339.72624,412.63439 339.26406,414.19161 335.76566,414.19161 L 335.76566,414.19161 L 332.07527,414.19161 L 332.07527,414.19161 C 328.57687,414.19161 328.11469,412.63439 328.11469,410.70032 L 328.11469,410.70032 L 328.11469,397.55999 L 321.48052,397.55999 L 321.48052,412.91171 L 321.48052,412.91171 C 321.48052,416.48832 323.13729,419.24722 329.1315,419.24722 L 329.1315,419.24722 L 338.71654,419.24722 z"
       id="path2397"
       style="font-style:normal;font-variant:normal;font-weight:normal;font-stretch:normal;letter-spacing:normal;word-spacing:normal;text-anchor:start;fill:#ff0000;fill-opacity:1;fill-rule:evenodd;stroke:#000000;stroke-width:0;stroke-linecap:butt;stroke-linejoin:miter;stroke-miterlimit:10.43299961;stroke-dasharray:none;stroke-dashoffset:0;stroke-opacity:1" />
    <path
       d="M 402.34903,419.24722 L 402.62634,419.24722 L 402.89654,419.24011 L 403.42272,419.21878 L 403.92046,419.17612 L 404.39687,419.12634 L 404.85195,419.05524 L 405.27858,418.96991 L 405.69099,418.87747 L 406.07496,418.7637 L 406.4376,418.63571 L 406.77891,418.50061 L 407.09889,418.35129 L 407.40464,418.18775 L 407.68906,418.01709 L 407.95215,417.82511 L 408.19391,417.63312 L 408.42145,417.41981 L 408.63477,417.20649 L 408.82675,416.97895 L 408.99741,416.73719 L 409.16095,416.48832 L 409.30316,416.23234 L 409.43115,415.96925 L 409.54492,415.69194 L 409.64447,415.41463 L 409.73691,415.12309 L 409.80801,414.82445 L 409.8649,414.51869 L 409.91467,414.21294 L 409.95733,413.89296 L 409.97867,413.57299 L 409.99289,413.23879 L 410,412.91171 L 410,412.91171 L 410,397.55999 L 403.36584,397.55999 L 403.36584,410.70032 L 403.36584,410.70032 C 403.36584,412.63439 402.90365,414.19161 399.39814,414.19161 L 399.39814,414.19161 L 395.71487,414.19161 L 395.71487,414.19161 C 392.20935,414.19161 391.75428,412.63439 391.75428,410.70032 L 391.75428,410.70032 L 391.75428,397.55999 L 385.11301,397.55999 L 385.11301,412.91171 L 385.11301,412.91171 C 385.11301,416.48832 386.77688,419.24722 392.76398,419.24722 L 392.76398,419.24722 L 402.34903,419.24722 z"
       id="path2399"
       style="font-style:normal;font-variant:normal;font-weight:normal;font-stretch:normal;letter-spacing:normal;word-spacing:normal;text-anchor:start;fill:#ff0000;fill-opacity:1;fill-rule:evenodd;stroke:#000000;stroke-width:0;stroke-linecap:butt;stroke-linejoin:miter;stroke-miterlimit:10.43299961;stroke-dasharray:none;stroke-dashoffset:0;stroke-opacity:1" />
    <path
       d="M 289.89538,414.19161 L 289.89538,419.24722 L 311.46173,419.24722 L 311.46173,419.24722 C 315.05968,419.24722 316.34669,416.58787 316.62401,415.20842 C 316.90132,413.82897 316.53157,410.79276 314.13531,409.87549 L 314.13531,409.87549 L 297.95876,403.81018 L 297.95876,403.81018 C 297.26904,403.4902 297.63879,402.6156 298.46361,402.6156 L 298.46361,402.6156 L 314.50506,402.6156 L 314.50506,397.55999 L 297.95165,397.55999 L 297.95165,397.55999 C 294.45325,397.55999 291.50237,398.847 290.76287,401.19349 C 290.09447,403.31244 290.17269,406.66152 293.40089,407.76365 L 293.40089,407.76365 L 307.96333,413.13924 L 307.96333,413.13924 C 308.8806,413.50899 308.65306,414.19161 307.8709,414.19161 L 307.8709,414.19161 L 289.89538,414.19161 z"
       id="path2401"
       style="font-style:normal;font-variant:normal;font-weight:normal;font-stretch:normal;letter-spacing:normal;word-spacing:normal;text-anchor:start;fill:#ff0000;fill-opacity:1;fill-rule:evenodd;stroke:#000000;stroke-width:0;stroke-linecap:butt;stroke-linejoin:miter;stroke-miterlimit:10.43299961;stroke-dasharray:none;stroke-dashoffset:0;stroke-opacity:1" />
    <path
       d="M 377.95266,414.19161 L 377.95266,419.24722 L 357.30357,419.24722 L 357.30357,419.24722 C 353.71273,419.24722 353.06567,417.22782 352.78836,415.84837 C 352.51105,414.46892 352.8808,411.43982 355.27706,410.52255 L 355.27706,410.52255 L 370.07415,402.96402 L 370.07415,402.96402 C 370.39413,402.82181 370.41546,402.6156 370.09548,402.6156 L 370.09548,402.6156 L 353.34298,402.6156 L 353.34298,397.55999 L 370.11682,397.55999 L 370.11682,397.55999 C 373.62233,397.55999 376.54477,397.70931 377.58291,399.99891 C 378.50729,402.01831 378.0451,405.09719 374.8169,406.19933 L 374.8169,406.19933 L 360.94418,413.28146 L 360.94418,413.28146 C 360.30423,413.55166 360.21179,414.19161 360.99396,414.19161 L 360.99396,414.19161 L 377.95266,414.19161 z"
       id="path2403"
       style="font-style:normal;font-variant:normal;font-weight:normal;font-stretch:normal;letter-spacing:normal;word-spacing:normal;text-anchor:start;fill:#ff0000;fill-opacity:1;fill-rule:evenodd;stroke:#000000;stroke-width:0;stroke-linecap:butt;stroke-linejoin:miter;stroke-miterlimit:10.43299961;stroke-dasharray:none;stroke-dashoffset:0;stroke-opacity:1" />
  </g>
</svg>
